# xmcd CD database file
#
# Track frame offsets:
#	150
#	50932
#	83519
#	117602
#	152871
#	182711
#
# Disc length: 2714 seconds
#
# Revision: 0
# Processed by: cddbd v1.5.2PL0 Copyright (c) Steve Scherf et al.
# Submitted via: CDex 1.70beta3
#
DISCID=4e0a9806
DTITLE=Bobby Bradford and Frode Gjerstad and Paal Nilssen-Love - Poznan
DYEAR=2010
DGENRE=Jazz
TTITLE0=Pitaya
TTITLE1=Pogpna
TTITLE2=Draco
TTITLE3=Agamidae
TTITLE4=Dracaena
TTITLE5=Komodo Dragon
EXTD=YEAR: 2010
EXTT0=
EXTT1=
EXTT2=
EXTT3=
EXTT4=
EXTT5=
PLAYORDER=
